#!OML:ASF F:\VICON\USERDATA\INSTALL\rory3\rory3.ASF
:FULLY-SPECIFIED
:DEGREES
73
root 0.6574897923970294 17.43726330195125 39.33744565161365 3.2844038203221677 -2.910504473681769 -0.08438534979433143
lfemur -9.310297216694739 -3.4411694417419314 -24.58246663941938
ltibia 43.97261894122594
lfoot -13.961326733833765 -2.633853144806449
ltoes -7.942555489828355
rfemur -25.334165792497117 3.1545545982649994 22.30626521107573
rtibia 79.8994641676316
rfoot 12.119435897857112 -4.663982736259765
rtoes 13.443699953053851
lowerback 13.6162338972334 1.3788044458857713 -1.4757058079028105
upperback -0.23498850582275177 1.5464566729615652 -0.07449220976795279
thorax -9.60654612117396 0.8245231342392825 1.072889240465317
lowerneck -18.89894749070884 -2.7786443597150416 -3.001903259855669
upperneck 12.238127991959765 -3.3051397523251964 4.030716036373199
head 7.452412767829673 -1.2827952869706167 1.4299566772709504
lclavicle -1.5422242044486088e-15 -3.2946275535607072e-15
lhumerus -41.57808278169992 -7.644629452864381 88.50480109389767
lradius 111.9523987521226
lwrist 29.46611958278925
lhand -24.506800359988684 2.9185443271511726
lfingers 7.12502
lthumb 2.0274962635164906 33.247101664929204
rclavicle -1.541913231356601e-15 -3.2958891048751574e-15
rhumerus -46.569083769738725 9.904343618200881 -97.27277026776622
rradius 110.75972842278242
rwrist -21.403401337348537
rhand -18.2225237398744 37.55022913283787
rfingers 7.12502
rthumb 7.781752747691963 8.657956705246484
74
root 0.6593017322850137 17.572423155659926 40.25146900196136 3.561638499602897 -3.343232282368062 0.6786437573643473
lfemur -6.027463700246331 -3.4161294428102673 -25.70678268815894
ltibia 42.47699559556725
lfoot -11.54262988772076 -2.8039741903537667
ltoes -13.493822655586738
rfemur -27.332268922336667 2.480758484573759 21.542782086516482
rtibia 77.38558424262045
rfoot 10.869696066631391 -4.14462230914773
rtoes 10.646880384819752
lowerback 13.272565710519016 1.1287070252774176 -2.2521670611589464
upperback -0.41172669444878934 1.0658955695891652 -0.14833626059669625
thorax -9.730798985991774 0.6177796375299959 1.6252576254808293
lowerneck -18.894307824084333 -2.5241178919046745 -2.924414324648641
upperneck 12.079988666346152 -2.9830859746392435 3.8663437464789787
head 7.2188762437910645 -1.1753925608584823 1.4139915394029
lclavicle -1.542613104614565e-15 -3.29491531923526e-15
lhumerus -39.94459099735937 -7.330346603106699 88.1690260046121
lradius 113.73564838693427
lwrist 30.733777877614102
lhand -25.229685331293663 3.0290023203261818
lfingers 7.12502
lthumb 1.5929022381255444 33.03220781651914
rclavicle -1.54556478075876e-15 -3.298356110943286e-15
rhumerus -48.10345583099765 10.247635401224546 -97.40154045276859
rradius 109.60938863391341
rwrist -22.317492714916305
rhand -18.046260263279056 37.83022703050351
rfingers 7.12502
rthumb 8.45770362076585 8.702422774516055
75
root 0.6366965215255774 17.74801322815833 41.175026502142906 3.648668807420836 -3.8498757592522055 0.7033677983599143
lfemur -2.963212651953933 -3.3202491381661745 -25.60271427318795
ltibia 41.077585709618134
lfoot -7.469629776229527 -3.959558416276394
ltoes -19.64580863477162
rfemur -28.66752295257211 2.080583272131466 21.836470482243918
rtibia 73.16190092402084
rfoot 10.081597926122047 -4.367122089255339
rtoes 8.815004903474996
lowerback 13.126007419999297 0.8901547537939549 -2.2944744543541553
upperback -0.7717659694119207 0.7541045465486447 0.10923104557943497
thorax -10.124704398265242 0.491131144685203 2.0440282806140266
lowerneck -18.513116644448672 -2.34645619018977 -2.8461958614758887
upperneck 12.09592077982959 -2.755183437822084 3.6422803074401155
head 7.090409952534297 -1.0763072431806846 1.3813434465595977
lclavicle -1.5432259719616982e-15 -3.2953511769247673e-15
lhumerus -39.293445986933826 -7.154966316560141 88.01553009514215
lradius 115.87297292286871
lwrist 32.68180954946397
lhand -25.86389568196615 3.6449234538557302
lfingers 7.12502
lthumb 0.44774363380823656 33.14520001506471
rclavicle -1.5473902586505633e-15 -3.2993419402516345e-15
rhumerus -50.115939810767614 10.408291700584451 -97.57691700421258
rradius 108.93566713551283
rwrist -23.021678257432548
rhand -17.208189515499697 38.131623803484764
rfingers 7.12502
rthumb 9.264488522345507 8.906567375440325
76
root 0.6142176634419586 17.93866641812381 42.26533221363296 3.785047561665501 -4.6156988688638325 0.30974777509620655
lfemur -0.6748853361408145 -2.8567199381645256 -24.958966742995074
ltibia 39.80792084406937
lfoot -2.667933534455596 -5.964387139188758
ltoes -25.828388256865313
rfemur -29.717026883216793 2.0624221666843483 22.655932668172447
rtibia 67.56892370003112
rfoot 9.833285118362221 -4.946016801465072
rtoes 8.129550892448096
lowerback 12.733605901573394 0.7183133641885061 -1.8639762624854646
upperback -1.0690598970734722 0.6315021565324556 0.5334449903331365
thorax -10.098773277399335 0.43087561169589955 2.2092165728240367
lowerneck -18.6421577296263 -2.2390525893015303 -2.81359452210452
upperneck 12.359904932065074 -2.654468040315583 3.4939885998738065
head 7.1790595009127465 -1.0741025307704544 1.332934751579686
lclavicle -1.5395906871194666e-15 -3.2927118706170496e-15
lhumerus -39.137734426900046 -7.394752323021967 88.04838798063615
lradius 117.80939660559571
lwrist 33.7139267806987
lhand -25.20866566601163 3.3817775195371658
lfingers 7.12502
lthumb 0.7353190837791154 33.16773159499811
rclavicle -1.5509934194561516e-15 -3.3018951794999517e-15
rhumerus -51.765986490774296 10.664359702426122 -97.66046527700661
rradius 108.20666121871572
rwrist -23.073572564741898
rhand -17.05330283930755 38.34563600384244
rfingers 7.12502
rthumb 9.842587649955759 8.78617951506889
77
root 0.6130311310748187 18.18252162086067 43.16885291588386 3.734613439709009 -5.4877070989529635 -0.4534995459571216
lfemur 1.2186661043484222 -2.4316277670885453 -23.742233848511447
ltibia 38.70300720293007
lfoot 3.6259307658317326 -8.257475049361513
ltoes -27.632032861799335
rfemur -30.117734503417758 2.2107161975946648 23.836755215370303
rtibia 60.99184633720014
rfoot 10.004529440186902 -5.375544077825745
rtoes 7.508369561899645
lowerback 12.370366525065585 0.5733140467357756 -0.9346061008621698
upperback -1.2810145303411615 0.6353053392460453 0.9764091816908949
thorax -10.120696314944668 0.3979838511785854 2.0266812490619164
lowerneck -18.613024676716357 -2.2324888885370253 -2.817673708722162
upperneck 12.541570109431827 -2.6669730839475307 3.4597562348855058
head 7.246612304882169 -1.0691454196414774 1.3537257392046464
lclavicle -1.5395563679549635e-15 -3.292713338161408e-15
lhumerus -39.06502447949893 -7.800866049658873 88.0165066611533
lradius 119.44456705575934
lwrist 33.94724048536521
lhand -23.054240693721503 2.445173211336185
lfingers 7.12502
lthumb 3.4630026277452446 32.43308866844837
rclavicle -1.5498155379201227e-15 -3.3009646245549253e-15
rhumerus -53.28692383131021 10.66561382920628 -97.76943586946906
rradius 107.62566287979234
rwrist -23.055665377451028
rhand -16.906066924014738 38.543186675325884
rfingers 7.12502
rthumb 9.874293041761295 9.134386779827587
